<?xml version="1.0" standalone="no"?>
<!DOCTYPE svg PUBLIC "-//W3C//DTD SVG 20010904//EN"
 "http://www.w3.org/TR/2001/REC-SVG-20010904/DTD/svg10.dtd">
<svg version="1.0" xmlns="http://www.w3.org/2000/svg"
 width="923.000000pt" height="923.000000pt" viewBox="0 0 923.000000 923.000000"
 preserveAspectRatio="xMidYMid meet">
<metadata>
Created by potrace 1.14, written by Peter Selinger 2001-2017
</metadata>
<g transform="translate(0.000000,923.000000) scale(0.100000,-0.100000)"
fill="#000000" stroke="none">
<path d="M5754 9178 c-35 -38 -61 -77 -154 -229 -24 -41 -48 -75 -52 -77 -5
-2 -8 -12 -8 -23 0 -11 -6 -22 -14 -25 -12 -5 -24 -30 -24 -51 0 -3 -4 -9 -9
-12 -11 -8 -63 -88 -63 -97 0 -9 -83 -118 -92 -122 -5 -2 -8 -10 -8 -18 0 -8
-3 -14 -7 -14 -5 0 -17 -18 -27 -40 -11 -22 -26 -40 -33 -40 -9 0 -11 -5 -7
-12 6 -10 4 -10 -8 0 -8 7 -22 10 -30 7 -8 -3 -45 -58 -84 -122 -38 -63 -79
-126 -90 -139 -12 -12 -20 -24 -18 -26 1 -2 -21 -29 -50 -61 -30 -31 -52 -57
-50 -57 5 0 -82 -93 -208 -223 -65 -66 -118 -117 -118 -112 0 4 -8 -3 -19 -16
-10 -13 -54 -51 -96 -84 -43 -33 -89 -70 -103 -82 -13 -12 -32 -25 -42 -28
-10 -3 -21 -12 -24 -20 -3 -8 -12 -15 -21 -15 -8 0 -15 -4 -15 -8 0 -4 -15
-16 -32 -27 -18 -10 -42 -27 -52 -37 -11 -10 -26 -18 -33 -18 -8 0 -11 -4 -8
-10 3 -5 1 -10 -5 -10 -10 0 -68 -37 -80 -51 -3 -3 -20 -14 -39 -25 -25 -14
-35 -16 -38 -6 -3 6 -9 12 -13 12 -5 0 -35 28 -67 62 -32 34 -68 72 -80 85
-12 13 -20 23 -18 23 2 0 -6 10 -18 23 -54 55 -107 123 -107 136 0 8 -3 12 -6
8 -7 -7 -27 14 -128 137 -36 44 -66 86 -66 93 0 7 -4 13 -10 13 -5 0 -10 7
-10 15 0 14 -36 86 -49 95 -3 3 -12 16 -19 30 -7 14 -22 40 -33 59 -11 19 -30
60 -41 90 -12 31 -25 67 -31 81 -6 14 -11 27 -12 30 0 3 -6 15 -13 26 -6 12
-8 24 -5 28 3 3 1 6 -6 6 -7 0 -11 7 -8 15 4 8 2 17 -3 20 -5 3 -14 22 -21 43
-6 20 -31 76 -55 124 -23 47 -39 90 -36 95 4 4 -10 -8 -31 -26 -20 -19 -37
-39 -37 -44 0 -5 -10 -23 -22 -40 -31 -43 -45 -67 -59 -99 -6 -16 -14 -28 -18
-28 -4 0 -13 -16 -21 -35 -8 -19 -18 -35 -22 -35 -5 0 -6 -4 -3 -10 3 -5 1
-10 -5 -10 -6 0 -8 -4 -5 -10 3 -5 2 -10 -3 -10 -5 0 -16 -17 -25 -37 -9 -21
-22 -47 -29 -58 -78 -119 -114 -171 -120 -173 -5 -2 -8 -10 -8 -17 0 -23 -43
-61 -67 -59 -13 1 -23 -4 -23 -11 0 -7 -7 -18 -15 -25 -8 -7 -12 -16 -9 -21 3
-5 1 -9 -5 -9 -5 0 -13 -10 -17 -22 -3 -13 -19 -42 -35 -66 -16 -24 -29 -47
-29 -53 0 -5 -4 -9 -10 -9 -5 0 -10 -5 -10 -11 0 -6 -6 -17 -13 -24 -6 -8 -17
-20 -22 -27 -107 -133 -345 -398 -345 -383 0 2 -17 -13 -38 -33 -36 -34 -93
-83 -145 -124 -12 -10 -29 -23 -37 -30 -8 -7 -18 -12 -22 -11 -5 2 -8 -4 -8
-13 0 -8 -5 -12 -10 -9 -6 3 -13 -1 -16 -9 -3 -9 -12 -16 -19 -16 -7 0 -23
-10 -36 -23 -13 -13 -45 -38 -71 -57 -27 -18 -48 -38 -48 -43 0 -6 -3 -8 -6
-4 -4 3 -25 -6 -48 -22 -22 -15 -62 -37 -88 -49 -49 -22 -68 -46 -68 -81 0
-26 28 -60 60 -73 33 -13 177 -11 270 3 41 6 86 12 100 13 14 2 36 6 50 9 14
4 36 9 50 11 14 3 40 8 58 12 37 8 41 -4 17 -50 -8 -15 -15 -35 -15 -42 0 -8
-4 -14 -8 -14 -4 0 -8 -10 -9 -22 -1 -11 -7 -24 -13 -28 -7 -4 -11 -10 -11
-14 1 -3 -6 -22 -14 -42 -8 -20 -15 -38 -15 -40 0 -3 -19 -44 -42 -92 -23 -48
-42 -89 -43 -92 -6 -27 -30 -80 -36 -80 -4 0 -10 -10 -14 -22 -4 -13 -8 -25
-9 -28 -1 -3 -38 -75 -81 -160 -44 -85 -81 -161 -83 -167 -2 -7 -8 -13 -13
-13 -6 0 -8 -4 -5 -9 3 -5 -1 -14 -9 -21 -8 -7 -15 -18 -15 -26 0 -7 -6 -19
-13 -26 -6 -7 -30 -48 -52 -90 -22 -43 -43 -78 -47 -78 -5 0 -8 -7 -8 -15 0
-9 -9 -25 -20 -37 -10 -12 -17 -24 -15 -29 3 -4 0 -13 -7 -21 -12 -12 -23 -31
-79 -137 -10 -19 -22 -37 -26 -40 -5 -3 -17 -23 -28 -43 -11 -21 -23 -38 -27
-38 -5 0 -8 -6 -8 -13 0 -7 -26 -38 -59 -69 -66 -64 -80 -99 -49 -130 23 -23
103 -23 131 0 9 8 17 12 17 8 0 -4 12 2 26 13 15 12 33 21 40 21 8 0 14 5 14
10 0 6 7 10 15 10 8 0 15 5 15 11 0 5 3 8 8 5 4 -2 26 9 50 25 23 16 46 29 50
29 5 0 17 8 28 18 10 9 38 26 61 37 24 11 43 23 43 26 0 3 16 11 35 19 19 8
35 17 35 22 0 4 7 8 15 8 8 0 15 5 15 11 0 5 4 8 9 5 5 -3 20 4 35 15 14 11
26 17 26 12 0 -4 4 -3 8 2 29 40 103 56 83 18 -5 -10 -20 -45 -32 -78 -13 -33
-25 -62 -28 -65 -3 -3 -7 -9 -8 -15 -1 -5 -17 -44 -36 -85 -19 -41 -35 -79
-36 -85 -1 -5 -9 -17 -17 -26 -8 -9 -11 -19 -7 -22 3 -4 1 -7 -5 -7 -7 0 -12
-6 -12 -12 0 -16 -42 -102 -52 -106 -5 -2 -8 -12 -8 -22 0 -10 -6 -25 -12 -32
-7 -7 -31 -48 -53 -91 -72 -139 -192 -345 -223 -382 -4 -5 -9 -13 -10 -17 -5
-17 -58 -102 -74 -119 -9 -9 -14 -20 -11 -23 4 -3 1 -6 -5 -6 -7 0 -12 -9 -12
-20 0 -11 -3 -20 -8 -20 -4 0 -18 -20 -32 -45 -14 -25 -28 -45 -33 -45 -4 0
-6 -4 -3 -9 3 -5 -1 -11 -9 -15 -8 -3 -15 -10 -15 -16 0 -10 -37 -65 -65 -96
-5 -6 -17 -22 -25 -34 -8 -12 -19 -28 -25 -34 -5 -6 -22 -27 -37 -48 -15 -20
-33 -42 -40 -50 -7 -7 -28 -34 -47 -58 -19 -25 -41 -52 -48 -60 -24 -27 -77
-95 -138 -176 -33 -43 -63 -80 -67 -82 -5 -2 -8 -10 -8 -18 0 -9 -4 -12 -10
-9 -5 3 -10 -1 -10 -9 0 -8 -8 -20 -17 -25 -10 -6 -15 -11 -11 -11 5 0 0 -8
-10 -18 -32 -34 -72 -82 -72 -87 0 -2 -25 -30 -55 -62 -30 -32 -55 -61 -55
-65 0 -5 -20 -17 -45 -29 -25 -12 -45 -26 -46 -33 0 -6 -2 -18 -4 -27 -5 -28
23 -79 50 -89 57 -22 158 -11 242 26 17 8 36 14 42 14 6 0 11 4 11 9 0 5 12
12 27 16 15 3 39 15 54 26 15 10 32 19 38 19 6 0 11 4 11 8 0 13 225 122 253
122 23 0 29 -31 11 -51 -10 -11 -14 -19 -10 -19 4 0 -4 -10 -17 -22 -13 -13
-26 -31 -30 -40 -3 -10 -11 -18 -17 -18 -5 0 -10 -8 -10 -17 0 -9 -3 -13 -7
-10 -3 4 -14 -4 -23 -18 -9 -13 -39 -49 -68 -80 -29 -30 -50 -55 -47 -55 2 0
-47 -51 -110 -114 -99 -99 -115 -119 -115 -147 0 -20 8 -39 22 -51 20 -17 32
-18 98 -13 68 6 202 22 240 30 137 28 591 128 690 152 14 3 30 7 35 8 6 2 39
10 75 19 36 9 74 18 85 21 11 2 35 8 53 14 18 5 35 10 37 10 3 1 6 1 8 2 24 7
37 5 37 -7 0 -16 -38 -111 -77 -194 -15 -30 -27 -57 -28 -60 -3 -16 -81 -166
-87 -168 -5 -2 -8 -7 -8 -12 0 -4 -27 -65 -61 -135 -33 -69 -61 -138 -63 -153
-3 -31 43 -82 73 -82 30 0 84 21 118 46 17 13 34 24 37 24 3 0 19 13 34 30 16
16 31 27 35 24 3 -3 8 4 12 15 3 12 10 21 15 21 5 0 47 40 94 88 69 70 96 92
138 106 29 10 67 24 83 32 31 13 132 43 175 51 40 8 55 11 58 13 1 2 5 3 10 4
33 9 73 17 102 21 19 4 52 10 73 14 46 11 53 1 27 -41 -11 -18 -20 -43 -20
-55 0 -29 40 -74 65 -74 11 0 45 1 76 2 31 1 62 -1 68 -5 7 -5 9 -63 6 -189
-9 -382 -6 -574 10 -647 15 -67 15 -68 -32 -75 -25 -3 -55 -9 -66 -11 -12 -3
-33 -7 -47 -10 -23 -4 -60 -13 -85 -20 -5 -2 -22 -6 -37 -9 -15 -3 -40 -10
-55 -16 -16 -6 -37 -13 -47 -15 -30 -6 -157 -55 -208 -81 -27 -13 -49 -22 -51
-21 -5 4 -57 -53 -58 -63 -7 -52 13 -83 56 -87 17 -2 104 15 195 37 172 42
340 76 425 86 28 4 61 9 75 12 14 3 131 7 260 8 209 3 342 -3 435 -19 17 -3
49 -8 72 -11 23 -3 75 -12 115 -21 40 -8 84 -17 98 -19 107 -21 195 -46 321
-90 37 -13 70 -21 73 -18 3 4 6 2 6 -4 0 -6 21 -16 47 -24 26 -7 73 -25 105
-41 32 -15 61 -28 66 -29 4 -1 15 -5 25 -10 30 -17 19 0 -48 69 -36 36 -65 70
-65 75 0 4 -4 5 -10 2 -5 -3 -10 1 -10 9 0 9 -7 16 -15 16 -8 0 -15 3 -15 8 0
4 -18 18 -40 32 -22 14 -40 28 -40 33 0 4 -4 6 -9 2 -5 -3 -15 0 -23 7 -19 18
-97 58 -114 58 -8 0 -14 5 -14 10 0 6 -8 10 -18 10 -10 0 -22 4 -27 9 -15 13
-174 68 -262 90 -82 21 -87 22 -228 47 -103 18 -110 21 -94 40 16 19 12 229
-5 319 -2 11 -7 52 -11 90 -3 39 -13 122 -20 185 -25 213 -40 398 -31 389 4
-4 37 0 74 8 37 8 78 16 92 19 14 2 36 7 50 10 14 4 34 8 45 10 11 1 43 8 70
14 28 6 64 13 81 15 17 3 44 9 58 15 15 5 30 9 34 8 4 -1 21 1 37 5 17 4 39 9
50 12 11 2 57 13 103 24 89 21 93 19 70 -36 -6 -15 -12 -30 -13 -33 -7 -24
-136 -292 -145 -300 -3 -3 -27 -49 -55 -102 -27 -54 -53 -98 -57 -98 -5 0 -8
-6 -8 -13 0 -8 -22 -57 -50 -111 -59 -114 -64 -154 -24 -191 53 -49 164 -18
259 72 7 7 15 9 19 6 3 -4 6 -1 6 4 0 6 19 25 42 42 23 17 38 31 33 31 -5 0 2
8 15 17 14 10 29 16 35 15 5 -2 7 -1 3 3 -11 12 140 153 172 161 3 0 14 4 25
9 94 39 191 67 305 91 13 3 56 12 95 20 106 23 106 23 150 29 38 6 127 21 171
29 12 2 44 7 72 11 54 7 67 -4 58 -50 -4 -22 -14 -228 -21 -438 -3 -76 -8
-179 -11 -230 -9 -136 -11 -349 -4 -412 4 -37 2 -59 -5 -65 -7 -6 -14 -7 -17
-4 -12 11 -107 19 -223 19 -129 -1 -166 -6 -233 -29 -23 -8 -43 -15 -45 -15
-1 0 -13 -4 -26 -9 -30 -11 -17 -20 41 -28 119 -17 163 -30 175 -55 8 -15 9
-25 3 -27 -6 -2 -8 -7 -6 -11 3 -4 0 -8 -7 -8 -31 -1 -331 -116 -356 -137 -8
-6 -16 -10 -18 -8 -2 2 -48 -20 -103 -49 -155 -81 -223 -162 -189 -225 14 -28
50 -32 73 -8 9 8 16 12 16 8 0 -4 6 -1 13 8 10 12 137 72 157 73 15 2 87 29
98 38 6 5 12 6 12 2 0 -4 7 -2 15 5 8 7 15 9 15 5 0 -4 6 -3 13 3 6 6 15 11
20 11 4 1 8 1 10 2 1 0 10 2 19 4 9 2 39 10 65 18 83 26 157 47 178 51 11 3
58 13 105 24 47 11 103 23 125 26 23 4 51 8 64 11 30 6 161 23 184 24 248 11
421 -4 621 -55 110 -28 262 -79 280 -93 6 -5 14 -10 19 -10 4 0 23 -8 43 -16
20 -8 40 -15 45 -15 5 0 9 -4 9 -10 0 -5 5 -10 11 -10 6 0 40 -17 76 -37 92
-54 93 -55 145 -90 26 -18 51 -33 57 -33 6 0 11 -4 11 -9 0 -5 14 -14 30 -21
17 -7 30 -16 30 -19 0 -4 17 -17 38 -29 20 -12 59 -42 86 -67 27 -25 51 -43
53 -41 6 5 -17 43 -44 73 -12 14 -21 28 -20 32 2 7 -62 106 -92 141 -34 40
-91 99 -91 95 0 -2 -15 12 -34 30 -18 19 -36 35 -40 35 -4 0 -21 13 -39 30
-18 16 -36 30 -40 30 -5 0 -23 10 -40 23 -84 59 -268 148 -397 192 -57 20
-107 41 -111 47 -10 16 12 58 31 58 9 0 20 4 25 9 22 20 213 81 335 107 80 17
180 35 210 39 19 3 53 7 75 10 22 2 66 7 98 10 31 3 85 8 120 11 96 9 410 11
495 2 43 -4 115 -10 162 -13 47 -4 120 -15 164 -26 95 -23 102 -23 82 -4 -8 8
-19 15 -25 15 -5 0 -14 7 -19 16 -5 8 -16 16 -25 18 -9 1 -28 12 -42 24 -14
12 -25 19 -25 16 0 -3 -14 6 -31 20 -17 14 -34 26 -39 26 -4 0 -25 8 -46 17
-22 9 -43 18 -49 19 -133 37 -117 33 -260 54 -89 14 -415 17 -515 5 -36 -4
-79 -9 -96 -10 -85 -9 -128 -17 -239 -40 -127 -28 -132 -29 -155 -37 -66 -25
-233 -78 -235 -76 -2 3 -7 58 -20 223 -5 64 -14 159 -20 210 -5 42 -13 143
-21 255 -12 175 -14 207 -19 229 -7 36 -18 132 -19 170 -1 32 1 35 34 38 55 6
245 39 245 43 0 1 9 3 19 5 10 2 22 9 26 15 4 7 10 11 14 11 19 -3 27 1 44 19
18 20 21 20 103 4 46 -8 120 -24 164 -36 44 -11 85 -21 90 -22 63 -15 275 -75
295 -83 20 -8 20 -8 55 -18 17 -4 116 -37 220 -72 105 -36 197 -67 205 -68 8
-2 16 -4 18 -5 1 -2 5 -3 10 -5 4 -1 14 -4 22 -7 20 -8 103 -33 113 -34 4 -1
9 -3 12 -4 3 -1 8 -3 13 -4 4 -1 49 -12 101 -25 52 -12 110 -24 130 -27 20 -2
50 -7 66 -11 17 -3 37 -7 45 -9 8 -1 42 -7 75 -13 164 -28 261 -36 406 -35
101 0 120 3 151 22 31 19 47 45 53 87 2 13 -24 66 -39 80 -6 5 -23 16 -38 24
-15 8 -37 22 -47 33 -11 10 -23 18 -26 18 -7 0 -63 39 -83 58 -8 7 -27 19 -43
27 -16 9 -29 20 -29 25 0 6 -3 9 -7 8 -5 -1 -33 14 -63 33 -64 42 -137 88
-165 106 -11 7 -28 16 -37 19 -10 3 -18 10 -18 15 0 5 -4 9 -9 9 -10 0 -141
79 -151 90 -3 3 -20 12 -37 19 -18 8 -33 17 -33 21 0 4 -8 10 -17 13 -19 6
-75 38 -83 48 -3 3 -12 8 -21 11 -21 8 -208 149 -252 191 -19 17 -62 58 -96
90 -33 31 -65 57 -70 57 -10 0 -23 40 -13 41 89 8 98 11 133 50 31 34 41 39
80 39 24 0 58 -7 74 -16 45 -25 76 -40 115 -57 19 -8 56 -24 82 -36 26 -11 52
-21 58 -21 6 0 18 -4 28 -9 9 -6 44 -21 77 -35 33 -14 105 -44 159 -66 70 -29
107 -40 125 -35 14 3 31 6 38 7 14 2 43 58 43 83 0 22 -41 115 -51 115 -4 0
-11 9 -14 21 -7 21 -15 32 -61 83 -13 14 -21 26 -19 26 2 0 -7 12 -20 26 -14
15 -23 30 -20 34 5 7 -61 100 -92 130 -10 10 -38 41 -63 70 -25 30 -79 90
-122 134 -141 149 -188 200 -188 201 0 1 -20 24 -45 50 -24 27 -42 52 -39 57
3 4 1 8 -4 8 -5 0 -13 10 -17 23 -4 12 -8 24 -10 27 -1 3 -8 20 -14 38 -7 17
-17 32 -22 32 -5 0 -8 3 -7 8 4 17 -26 91 -35 85 -6 -3 -8 -2 -4 3 3 5 -2 25
-10 44 -9 19 -15 38 -15 42 1 5 -3 8 -8 8 -5 0 -9 3 -8 8 4 13 -26 82 -35 82
-4 0 -6 4 -2 9 3 5 -2 16 -10 25 -9 8 -15 18 -14 21 0 3 -7 25 -17 48 -10 23
-17 45 -16 50 1 4 -3 7 -8 7 -5 0 -10 3 -9 8 2 15 -14 52 -23 52 -5 0 -7 4 -3
9 7 13 -16 62 -27 55 -5 -3 -8 -2 -7 3 4 13 -13 68 -23 74 -5 3 -11 18 -14 34
-5 26 -3 27 24 22 37 -8 48 2 22 20 -11 8 -20 21 -20 29 0 19 -25 45 -35 36
-4 -4 -6 -2 -5 3 5 22 -1 35 -15 35 -8 0 -15 5 -15 10 0 6 -7 10 -15 10 -8 0
-15 5 -15 11 0 8 -4 8 -13 1 -17 -14 -43 14 -41 44 1 12 -4 38 -11 58 -7 19
-9 33 -4 30 4 -2 3 9 -3 27 -23 65 30 52 110 -28 18 -18 35 -33 39 -33 3 0 25
-21 50 -47 24 -27 60 -64 79 -84 19 -20 34 -39 34 -42 0 -3 11 -18 25 -31 21
-21 24 -29 15 -46 -6 -11 -16 -19 -22 -17 -6 1 -13 -4 -16 -12 -3 -10 1 -13
17 -8 11 3 21 1 21 -3 0 -5 9 -12 20 -15 11 -4 31 -17 44 -30 12 -12 32 -26
44 -29 12 -4 22 -11 22 -16 0 -7 56 -44 73 -48 4 -1 17 -11 29 -22 12 -11 26
-20 32 -20 5 0 6 -3 3 -6 -7 -7 52 -64 66 -64 4 0 7 -7 7 -15 0 -8 3 -15 8
-15 4 0 25 -16 46 -36 41 -38 98 -54 133 -39 10 5 21 8 25 7 17 -3 42 98 28
116 -2 1 -3 7 -4 12 0 6 -6 14 -11 18 -6 4 -21 20 -33 36 -12 16 -22 26 -22
23 0 -10 -200 210 -203 223 0 3 -5 10 -9 15 -5 6 -25 32 -46 60 -20 27 -43 56
-49 63 -7 7 -13 17 -13 20 0 4 -11 20 -25 35 -14 15 -23 27 -20 27 4 0 -10 20
-29 44 -20 23 -36 48 -36 55 0 6 -4 11 -9 11 -5 0 -12 8 -15 18 -3 9 -17 30
-31 46 -14 16 -25 35 -25 42 0 7 -10 20 -22 29 -13 8 -21 16 -18 18 5 2 -102
182 -143 241 -11 16 -20 36 -20 43 0 7 -4 13 -9 13 -4 0 -8 5 -8 10 0 6 -11
28 -25 50 -14 22 -22 40 -18 40 5 0 0 5 -9 11 -10 5 -18 16 -18 22 0 7 -13 24
-28 37 -30 26 -58 69 -54 83 1 4 -3 7 -8 7 -6 0 -10 4 -10 9 0 4 -17 44 -37
87 -20 43 -37 81 -38 84 0 3 -6 15 -13 26 -6 12 -8 24 -5 28 3 3 1 6 -5 6 -7
0 -12 9 -12 19 0 11 -5 23 -10 26 -6 4 -8 11 -5 16 4 5 1 9 -4 9 -6 0 -11 6
-11 13 0 7 -19 62 -43 122 -23 61 -58 156 -77 212 -19 56 -39 99 -44 96 -5 -3
-6 -1 -3 4 8 13 -3 74 -12 69 -3 -2 -7 12 -8 32 -1 19 -6 38 -10 41 -7 6 -9
14 -15 64 -1 9 -5 17 -8 17 -4 0 -7 6 -7 13 -1 22 -13 75 -22 99 -5 13 -9 28
-9 33 0 14 19 36 27 30 24 -14 401 -24 534 -14 45 4 87 45 87 86 0 25 -38 89
-47 79 -3 -3 -40 13 -82 36 -69 37 -110 62 -226 137 -40 26 -124 109 -125 124
0 4 -7 7 -15 7 -8 0 -15 5 -15 12 0 6 -3 9 -6 6 -3 -3 -16 4 -29 16 -38 35
-54 46 -64 46 -5 0 -11 7 -15 15 -3 8 -2 15 3 15 19 0 41 49 32 72 -16 40
-141 178 -161 178 -6 0 -10 7 -10 15 0 8 -7 15 -17 15 -9 0 -14 3 -10 6 3 3
-8 20 -24 36 -16 17 -29 34 -29 39 0 4 -9 11 -20 14 -11 3 -20 13 -20 20 0 8
-8 20 -19 27 -10 7 -18 15 -18 18 1 5 -15 26 -61 78 -13 15 -35 44 -49 65 -14
20 -28 37 -32 37 -3 0 -17 17 -31 38 -14 20 -33 43 -43 50 -9 7 -15 18 -12 23
4 5 -1 9 -9 9 -9 0 -16 4 -16 9 0 5 -22 36 -50 70 -27 35 -52 71 -55 82 -4 10
-11 19 -17 19 -6 0 -9 3 -6 6 9 9 -16 62 -70 151 -27 45 -54 96 -61 114 -7 19
-17 43 -21 54 -8 20 -26 70 -74 200 -14 39 -31 84 -37 100 -7 17 -13 33 -14
38 -2 4 -4 10 -5 15 -1 4 -2 10 -1 15 0 4 -4 7 -11 7 -6 0 -9 3 -5 6 5 6 -13
48 -50 117 -8 16 -13 37 -10 48 7 28 -5 23 -39 -13z"/>
</g>
</svg>
